<mxfile host="app.diagrams.net" agent="Mozilla/5.0 (Windows NT 10.0; Win64; x64; rv:132.0) Gecko/20100101 Firefox/132.0" version="24.8.4">
  <diagram name="Page-1" id="Wo3F-4MoCm3Nn6g5_gXj">
    <mxGraphModel dx="1914" dy="1161" grid="1" gridSize="5" guides="1" tooltips="1" connect="1" arrows="1" fold="1" page="1" pageScale="1" pageWidth="850" pageHeight="1100" math="0" shadow="0">
      <root>
        <mxCell id="0" />
        <mxCell id="1" parent="0" />
        <mxCell id="LpPT17mSEVb4gZpZipFh-7" value="" style="endArrow=none;html=1;rounded=0;strokeColor=#FF0000;" parent="1" edge="1">
          <mxGeometry width="50" height="50" relative="1" as="geometry">
            <mxPoint x="220" y="480" as="sourcePoint" />
            <mxPoint x="340" y="480" as="targetPoint" />
            <Array as="points">
              <mxPoint x="260" y="480" />
              <mxPoint x="260" y="440" />
              <mxPoint x="300" y="440" />
              <mxPoint x="300" y="480" />
              <mxPoint x="340" y="480" />
            </Array>
          </mxGeometry>
        </mxCell>
        <mxCell id="LpPT17mSEVb4gZpZipFh-10" value="&lt;div&gt;f(t)&lt;/div&gt;" style="text;html=1;align=center;verticalAlign=middle;resizable=0;points=[];autosize=1;strokeColor=none;fillColor=none;" parent="1" vertex="1">
          <mxGeometry x="176" y="445" width="40" height="30" as="geometry" />
        </mxCell>
        <mxCell id="LpPT17mSEVb4gZpZipFh-11" value="&lt;div&gt;g(t)&lt;/div&gt;" style="text;html=1;align=center;verticalAlign=middle;resizable=0;points=[];autosize=1;strokeColor=none;fillColor=none;" parent="1" vertex="1">
          <mxGeometry x="176" y="505" width="40" height="30" as="geometry" />
        </mxCell>
        <mxCell id="LpPT17mSEVb4gZpZipFh-20" value="" style="endArrow=none;html=1;rounded=0;strokeColor=#0000FF;" parent="1" edge="1">
          <mxGeometry width="50" height="50" relative="1" as="geometry">
            <mxPoint x="220" y="540" as="sourcePoint" />
            <mxPoint x="340" y="540" as="targetPoint" />
            <Array as="points">
              <mxPoint x="220" y="500" />
              <mxPoint x="260" y="500" />
              <mxPoint x="260" y="540" />
              <mxPoint x="340" y="540" />
            </Array>
          </mxGeometry>
        </mxCell>
        <mxCell id="LpPT17mSEVb4gZpZipFh-23" value="" style="endArrow=none;html=1;rounded=0;" parent="1" edge="1">
          <mxGeometry width="50" height="50" relative="1" as="geometry">
            <mxPoint x="444" y="465" as="sourcePoint" />
            <mxPoint x="564" y="465" as="targetPoint" />
            <Array as="points">
              <mxPoint x="484" y="465" />
              <mxPoint x="504" y="425" />
              <mxPoint x="524" y="465" />
            </Array>
          </mxGeometry>
        </mxCell>
        <mxCell id="LpPT17mSEVb4gZpZipFh-24" value="" style="group" parent="1" vertex="1" connectable="0">
          <mxGeometry x="429" y="485" width="60" height="20" as="geometry" />
        </mxCell>
        <mxCell id="LpPT17mSEVb4gZpZipFh-21" value="" style="endArrow=none;html=1;rounded=0;strokeColor=#FF0000;" parent="LpPT17mSEVb4gZpZipFh-24" edge="1">
          <mxGeometry width="50" height="50" relative="1" as="geometry">
            <mxPoint y="20" as="sourcePoint" />
            <mxPoint x="60" y="20" as="targetPoint" />
            <Array as="points">
              <mxPoint x="20" y="20" />
              <mxPoint x="20" />
              <mxPoint x="40" />
              <mxPoint x="40" y="20" />
              <mxPoint x="60" y="20" />
            </Array>
          </mxGeometry>
        </mxCell>
        <mxCell id="LpPT17mSEVb4gZpZipFh-22" value="" style="endArrow=none;html=1;rounded=0;strokeColor=#0000FF;" parent="LpPT17mSEVb4gZpZipFh-24" edge="1">
          <mxGeometry width="50" height="50" relative="1" as="geometry">
            <mxPoint y="20" as="sourcePoint" />
            <mxPoint x="60" y="20" as="targetPoint" />
            <Array as="points">
              <mxPoint />
              <mxPoint x="20" />
              <mxPoint x="20" y="20" />
              <mxPoint x="60" y="20" />
            </Array>
          </mxGeometry>
        </mxCell>
        <mxCell id="LpPT17mSEVb4gZpZipFh-25" value="" style="endArrow=classic;startArrow=none;html=1;rounded=0;strokeWidth=1;startSize=1;endSize=1;startFill=0;strokeColor=#adadad;" parent="1" edge="1">
          <mxGeometry width="50" height="50" relative="1" as="geometry">
            <mxPoint x="484" y="500" as="sourcePoint" />
            <mxPoint x="484" y="470" as="targetPoint" />
          </mxGeometry>
        </mxCell>
        <mxCell id="LpPT17mSEVb4gZpZipFh-35" value="" style="group" parent="1" vertex="1" connectable="0">
          <mxGeometry x="439" y="515" width="60" height="20" as="geometry" />
        </mxCell>
        <mxCell id="LpPT17mSEVb4gZpZipFh-28" value="" style="rounded=0;whiteSpace=wrap;html=1;strokeColor=none;fillColor=#FFB570;connectable=0;" parent="LpPT17mSEVb4gZpZipFh-35" vertex="1">
          <mxGeometry x="20" width="10" height="20" as="geometry" />
        </mxCell>
        <mxCell id="LpPT17mSEVb4gZpZipFh-27" value="" style="endArrow=none;html=1;rounded=0;strokeColor=#FF0000;" parent="LpPT17mSEVb4gZpZipFh-35" edge="1">
          <mxGeometry width="50" height="50" relative="1" as="geometry">
            <mxPoint y="20" as="sourcePoint" />
            <mxPoint x="60" y="20" as="targetPoint" />
            <Array as="points">
              <mxPoint x="20" y="20" />
              <mxPoint x="20" />
              <mxPoint x="40" />
              <mxPoint x="40" y="20" />
              <mxPoint x="60" y="20" />
            </Array>
          </mxGeometry>
        </mxCell>
        <mxCell id="LpPT17mSEVb4gZpZipFh-34" value="" style="endArrow=none;html=1;rounded=0;strokeColor=#0000FF;" parent="LpPT17mSEVb4gZpZipFh-35" edge="1">
          <mxGeometry width="50" height="50" relative="1" as="geometry">
            <mxPoint x="10" y="20" as="sourcePoint" />
            <mxPoint x="60" y="20" as="targetPoint" />
            <Array as="points">
              <mxPoint x="10" y="20" />
              <mxPoint x="10" />
              <mxPoint x="30" />
              <mxPoint x="30" y="20" />
            </Array>
          </mxGeometry>
        </mxCell>
        <mxCell id="LpPT17mSEVb4gZpZipFh-36" value="" style="endArrow=classic;startArrow=none;html=1;rounded=0;strokeWidth=1;startSize=1;endSize=1;startFill=0;strokeColor=#adadad;" parent="1" edge="1">
          <mxGeometry width="50" height="50" relative="1" as="geometry">
            <mxPoint x="494" y="530" as="sourcePoint" />
            <mxPoint x="494" y="470" as="targetPoint" />
          </mxGeometry>
        </mxCell>
        <mxCell id="LpPT17mSEVb4gZpZipFh-38" value="" style="endArrow=classic;startArrow=classic;html=1;rounded=0;strokeWidth=1;startSize=1;endSize=1;startFill=1;strokeColor=#FFB570;" parent="1" edge="1">
          <mxGeometry width="50" height="50" relative="1" as="geometry">
            <mxPoint x="494" y="465" as="sourcePoint" />
            <mxPoint x="494" y="450" as="targetPoint" />
          </mxGeometry>
        </mxCell>
        <mxCell id="LpPT17mSEVb4gZpZipFh-44" value="" style="endArrow=classic;startArrow=none;html=1;rounded=0;strokeWidth=1;startSize=1;endSize=1;startFill=0;strokeColor=#adadad;" parent="1" edge="1">
          <mxGeometry width="50" height="50" relative="1" as="geometry">
            <mxPoint x="504" y="540" as="sourcePoint" />
            <mxPoint x="504" y="470" as="targetPoint" />
          </mxGeometry>
        </mxCell>
        <mxCell id="LpPT17mSEVb4gZpZipFh-45" value="" style="endArrow=classic;startArrow=classic;html=1;rounded=0;strokeWidth=1;startSize=1;endSize=1;startFill=1;strokeColor=#97D077;" parent="1" edge="1">
          <mxGeometry width="50" height="50" relative="1" as="geometry">
            <mxPoint x="503.88" y="465" as="sourcePoint" />
            <mxPoint x="504" y="430" as="targetPoint" />
          </mxGeometry>
        </mxCell>
        <mxCell id="LpPT17mSEVb4gZpZipFh-50" value="" style="endArrow=classic;startArrow=none;html=1;rounded=0;strokeWidth=1;startSize=1;endSize=1;startFill=0;strokeColor=#adadad;" parent="1" edge="1">
          <mxGeometry width="50" height="50" relative="1" as="geometry">
            <mxPoint x="514" y="530" as="sourcePoint" />
            <mxPoint x="514" y="470" as="targetPoint" />
          </mxGeometry>
        </mxCell>
        <mxCell id="LpPT17mSEVb4gZpZipFh-53" value="" style="rounded=0;whiteSpace=wrap;html=1;strokeColor=none;fillColor=#FFB570;connectable=0;" parent="1" vertex="1">
          <mxGeometry x="534" y="515" width="10" height="20" as="geometry" />
        </mxCell>
        <mxCell id="LpPT17mSEVb4gZpZipFh-55" value="" style="endArrow=none;html=1;rounded=0;strokeColor=#FF0000;" parent="1" edge="1">
          <mxGeometry width="50" height="50" relative="1" as="geometry">
            <mxPoint x="509" y="535" as="sourcePoint" />
            <mxPoint x="574" y="535" as="targetPoint" />
            <Array as="points">
              <mxPoint x="524" y="535" />
              <mxPoint x="524" y="515" />
              <mxPoint x="544" y="515" />
              <mxPoint x="544" y="535" />
            </Array>
          </mxGeometry>
        </mxCell>
        <mxCell id="LpPT17mSEVb4gZpZipFh-54" value="" style="endArrow=none;html=1;rounded=0;strokeColor=#0000FF;" parent="1" edge="1">
          <mxGeometry width="50" height="50" relative="1" as="geometry">
            <mxPoint x="524" y="535" as="sourcePoint" />
            <mxPoint x="574" y="535" as="targetPoint" />
            <Array as="points">
              <mxPoint x="524" y="535" />
              <mxPoint x="534" y="535" />
              <mxPoint x="534" y="515" />
              <mxPoint x="554" y="515" />
              <mxPoint x="554" y="535" />
              <mxPoint x="574" y="535" />
            </Array>
          </mxGeometry>
        </mxCell>
        <mxCell id="LpPT17mSEVb4gZpZipFh-42" value="" style="rounded=0;whiteSpace=wrap;html=1;strokeColor=none;fillColor=#97D077;" parent="1" vertex="1">
          <mxGeometry x="494" y="545" width="20" height="20" as="geometry" />
        </mxCell>
        <mxCell id="LpPT17mSEVb4gZpZipFh-41" value="" style="group" parent="1" vertex="1" connectable="0">
          <mxGeometry x="474" y="545" width="60" height="20" as="geometry" />
        </mxCell>
        <mxCell id="LpPT17mSEVb4gZpZipFh-40" value="" style="endArrow=none;html=1;rounded=0;strokeColor=#FF0000;" parent="LpPT17mSEVb4gZpZipFh-41" edge="1">
          <mxGeometry width="50" height="50" relative="1" as="geometry">
            <mxPoint y="20" as="sourcePoint" />
            <mxPoint x="60" y="20" as="targetPoint" />
            <Array as="points">
              <mxPoint x="20" y="20" />
              <mxPoint x="20" />
              <mxPoint x="40" />
              <mxPoint x="40" y="20" />
              <mxPoint x="60" y="20" />
            </Array>
          </mxGeometry>
        </mxCell>
        <mxCell id="LpPT17mSEVb4gZpZipFh-39" value="" style="endArrow=none;html=1;rounded=0;strokeColor=#0000FF;" parent="LpPT17mSEVb4gZpZipFh-41" edge="1">
          <mxGeometry width="50" height="50" relative="1" as="geometry">
            <mxPoint x="20" as="sourcePoint" />
            <mxPoint x="55" y="20" as="targetPoint" />
            <Array as="points">
              <mxPoint x="20" />
              <mxPoint x="40" />
              <mxPoint x="40" y="10" />
              <mxPoint x="40" y="20" />
              <mxPoint x="55" y="20" />
              <mxPoint x="60" y="20" />
            </Array>
          </mxGeometry>
        </mxCell>
        <mxCell id="LpPT17mSEVb4gZpZipFh-56" value="" style="endArrow=classic;startArrow=classic;html=1;rounded=0;strokeWidth=1;startSize=1;endSize=1;startFill=1;strokeColor=#FFB570;" parent="1" edge="1">
          <mxGeometry width="50" height="50" relative="1" as="geometry">
            <mxPoint x="514" y="465" as="sourcePoint" />
            <mxPoint x="514" y="450" as="targetPoint" />
          </mxGeometry>
        </mxCell>
        <mxCell id="LpPT17mSEVb4gZpZipFh-59" value="" style="endArrow=none;html=1;rounded=0;strokeColor=#FF0000;" parent="1" edge="1">
          <mxGeometry width="50" height="50" relative="1" as="geometry">
            <mxPoint x="519" y="505" as="sourcePoint" />
            <mxPoint x="574" y="505" as="targetPoint" />
            <Array as="points">
              <mxPoint x="534" y="505" />
              <mxPoint x="534" y="485" />
              <mxPoint x="554" y="485" />
              <mxPoint x="554" y="505" />
            </Array>
          </mxGeometry>
        </mxCell>
        <mxCell id="LpPT17mSEVb4gZpZipFh-58" value="" style="endArrow=none;html=1;rounded=0;strokeColor=#0000FF;" parent="1" edge="1">
          <mxGeometry width="50" height="50" relative="1" as="geometry">
            <mxPoint x="534" y="505" as="sourcePoint" />
            <mxPoint x="574" y="505" as="targetPoint" />
            <Array as="points">
              <mxPoint x="554" y="505" />
              <mxPoint x="554" y="485" />
              <mxPoint x="574" y="485" />
              <mxPoint x="574" y="505" />
              <mxPoint x="594" y="505" />
            </Array>
          </mxGeometry>
        </mxCell>
        <mxCell id="LpPT17mSEVb4gZpZipFh-60" value="" style="endArrow=classic;startArrow=none;html=1;rounded=0;strokeWidth=1;startSize=1;endSize=1;startFill=0;strokeColor=#adadad;" parent="1" edge="1">
          <mxGeometry width="50" height="50" relative="1" as="geometry">
            <mxPoint x="524" y="500" as="sourcePoint" />
            <mxPoint x="524" y="470" as="targetPoint" />
          </mxGeometry>
        </mxCell>
        <mxCell id="LpPT17mSEVb4gZpZipFh-61" value="&lt;font style=&quot;font-size: 11px;&quot;&gt;g(t)★f(t)&lt;/font&gt;" style="text;html=1;align=center;verticalAlign=middle;resizable=0;points=[];autosize=1;strokeColor=none;fillColor=none;" parent="1" vertex="1">
          <mxGeometry x="390" y="430" width="60" height="30" as="geometry" />
        </mxCell>
      </root>
    </mxGraphModel>
  </diagram>
</mxfile>
